<?xml version="1.0" encoding="UTF-8" standalone="no"?>
<svg
   xmlns:dc="http://purl.org/dc/elements/1.1/"
   xmlns:cc="http://creativecommons.org/ns#"
   xmlns:rdf="http://www.w3.org/1999/02/22-rdf-syntax-ns#"
   xmlns:svg="http://www.w3.org/2000/svg"
   xmlns="http://www.w3.org/2000/svg"
   xmlns:sodipodi="http://sodipodi.sourceforge.net/DTD/sodipodi-0.dtd"
   xmlns:inkscape="http://www.inkscape.org/namespaces/inkscape"
   inkscape:version="1.1-dev (60faa23, 2020-06-06)"
   sodipodi:docname="CLUB-9.svg"
   width="63.00013mm"
   height="88.000046mm"
   viewBox="0 0 238.11073 332.5986"
   version="1.1"
   id="svg8">
  <sodipodi:namedview
     inkscape:current-layer="svg8"
     inkscape:window-maximized="0"
     inkscape:window-y="0"
     inkscape:window-x="0"
     inkscape:cy="-603.77684"
     inkscape:cx="-736.20109"
     inkscape:zoom="0.070749697"
     showgrid="false"
     id="namedview22"
     inkscape:window-height="485"
     inkscape:window-width="774"
     inkscape:pageshadow="2"
     inkscape:pageopacity="0"
     guidetolerance="10"
     gridtolerance="10"
     objecttolerance="10"
     borderopacity="1"
     bordercolor="#666666"
     pagecolor="#ffffff" />
  <title
     id="title8745">Vector Playing Cards</title>
  <defs
     id="defs2" />
  <metadata
     id="metadata5">
    <rdf:RDF>
      <cc:Work
         rdf:about="">
        <dc:format>image/svg+xml</dc:format>
        <dc:type
           rdf:resource="http://purl.org/dc/dcmitype/StillImage" />
        <dc:title>Vector Playing Cards</dc:title>
        <dc:creator>
          <cc:Agent>
            <dc:title>Chris Aguilar</dc:title>
          </cc:Agent>
        </dc:creator>
        <dc:rights>
          <cc:Agent>
            <dc:title>Copyright 2011, 017</dc:title>
          </cc:Agent>
        </dc:rights>
        <dc:publisher>
          <cc:Agent>
            <dc:title>Chris Aguilar</dc:title>
          </cc:Agent>
        </dc:publisher>
        <dc:description>Vector Playing Cards</dc:description>
        <dc:contributor>
          <cc:Agent>
            <dc:title>Chris Aguilar</dc:title>
          </cc:Agent>
        </dc:contributor>
        <cc:license
           rdf:resource="https://opensource.org/licenses/lgpl-3.0.html" />
      </cc:Work>
    </rdf:RDF>
  </metadata>
  <g
     id="layer1"
     transform="translate(-888.2845,-2.8465438)">
    <g
       transform="matrix(1.07145,0,0,1.07009,-1873.2,1167.5)"
       id="CLUB-9">
      <rect
         y="-1088.3696"
         x="2577.334"
         height="310.81366"
         width="222.23224"
         id="rect6355-6-85-3-78-4-6"
         style="display:inline;opacity:1;fill:#ffffff;fill-opacity:1;stroke:none;stroke-width:0.996734;stroke-miterlimit:4;stroke-dasharray:none;stroke-opacity:1"
         rx="10.62995"
         ry="10.629899" />
      <path
         d="m 2739.9814,-1055.3647 c -9.7745,0.2122 -14.1575,11.2172 -6.9184,19.7632 1.0499,1.2466 1.1582,1.9619 -0.7646,0.7646 -4.8738,-3.2592 -14.2192,-1.1167 -14.6978,8.8472 -0.5911,12.277 16.5629,15.8143 19.7837,2.7597 0.1701,-1.3773 1.2896,-1.3459 1.0196,0.6092 -0.2937,5.3064 -1.9509,10.266 -4.2287,15.1025 3.8391,0 8.1296,0 11.6202,0 -2.2777,-4.8365 -3.9349,-9.7961 -4.2286,-15.1025 -0.2699,-1.9551 0.8495,-1.9865 1.0195,-0.6092 3.2209,13.0546 20.3749,9.5173 19.7837,-2.7597 -0.4784,-9.9639 -9.8239,-12.1064 -14.6978,-8.8472 -1.9228,1.1973 -1.8144,0.482 -0.7646,-0.7646 7.2391,-8.546 2.8561,-19.551 -6.9182,-19.7632 0,-10e-5 0,0 -0.01,0 z"
         id="path147-0-8-1-6-13-2-9-8-8"
         style="display:inline;opacity:1" />
      <path
         d="m 2636.9106,-1055.3647 c -9.7745,0.2122 -14.1575,11.2172 -6.9184,19.7632 1.0499,1.2466 1.1582,1.9619 -0.7646,0.7646 -4.8738,-3.2592 -14.2191,-1.1167 -14.6978,8.8472 -0.5911,12.277 16.5629,15.8143 19.7837,2.7597 0.1701,-1.3773 1.2894,-1.3459 1.0196,0.6092 -0.2937,5.3064 -1.9509,10.266 -4.2287,15.1025 3.8391,0 8.1296,0 11.6202,0 -2.2777,-4.8365 -3.9349,-9.7961 -4.2286,-15.1025 -0.2699,-1.9551 0.8495,-1.9865 1.0195,-0.6092 3.2209,13.0546 20.3749,9.5173 19.7837,-2.7597 -0.4784,-9.9639 -9.8239,-12.1064 -14.6978,-8.8472 -1.9228,1.1973 -1.8145,0.482 -0.7646,-0.7646 7.2391,-8.546 2.8561,-19.551 -6.9183,-19.7632 0,-10e-5 0,0 -0.01,0 z"
         id="path147-0-8-1-6-75-2-83-3-5-0"
         style="display:inline;opacity:1" />
      <path
         d="m 2739.9814,-809.7317 c -9.7745,-0.21226 -14.1575,-11.21726 -6.9184,-19.76328 1.0499,-1.24653 1.1582,-1.96187 -0.7646,-0.76452 -4.8738,3.25919 -14.2192,1.11662 -14.6978,-8.84728 -0.591,-12.27695 16.5629,-15.81427 19.7837,-2.75967 0.1701,1.37736 1.2896,1.34593 1.0196,-0.60916 -0.2937,-5.30642 -1.9509,-10.26606 -4.2287,-15.10253 3.8391,0 8.1296,0 11.6202,0 -2.2777,4.83647 -3.9349,9.79611 -4.2286,15.10253 -0.2699,1.95509 0.8495,1.98652 1.0195,0.60916 3.2209,-13.0546 20.3749,-9.51728 19.7837,2.75967 -0.4784,9.9639 -9.8239,12.10647 -14.6978,8.84728 -1.9228,-1.19735 -1.8144,-0.48201 -0.7646,0.76452 7.2391,8.54602 2.8561,19.55101 -6.9182,19.76328 0,6e-5 0,-5e-5 -0.01,0 z"
         id="path147-0-8-1-6-7-5-5-7-63-0-4"
         style="display:inline;opacity:1" />
      <path
         d="m 2636.9106,-809.7317 c -9.7745,-0.21226 -14.1575,-11.21726 -6.9184,-19.76328 1.0499,-1.24653 1.1582,-1.96187 -0.7646,-0.76452 -4.8738,3.25919 -14.2191,1.11662 -14.6978,-8.84728 -0.5911,-12.27695 16.5629,-15.81427 19.7837,-2.75967 0.1701,1.37736 1.2894,1.34593 1.0196,-0.60916 -0.2937,-5.30642 -1.9509,-10.26606 -4.2287,-15.10253 3.8391,0 8.1296,0 11.6202,0 -2.2777,4.83647 -3.9349,9.79611 -4.2286,15.10253 -0.2699,1.95509 0.8495,1.98652 1.0195,0.60916 3.2209,-13.0546 20.3749,-9.51728 19.7837,2.75967 -0.4784,9.9639 -9.8239,12.10647 -14.6978,8.84728 -1.9228,-1.19735 -1.8145,-0.48201 -0.7646,0.76452 7.2391,8.54602 2.8561,19.55101 -6.9183,19.76328 0,6e-5 0,-5e-5 -0.01,0 z"
         id="path147-0-8-1-6-75-6-1-2-46-5-0"
         style="display:inline;opacity:1" />
      <path
         d="m 2688.446,-956.47144 c -9.7745,0.21226 -14.1574,11.21726 -6.9184,19.76328 1.05,1.24653 1.1583,1.96188 -0.7646,0.76453 -4.8737,-3.25919 -14.2192,-1.11663 -14.6977,8.84728 -0.5911,12.27694 16.5628,15.81426 19.7836,2.75966 0.1701,-1.37736 1.2894,-1.34593 1.0196,0.60917 -0.2937,5.30641 -1.9508,10.26605 -4.2286,15.10252 3.839,0 8.1295,0 11.6201,0 -2.2777,-4.83647 -3.9349,-9.79611 -4.2286,-15.10252 -0.2699,-1.9551 0.8495,-1.98653 1.0195,-0.60917 3.2209,13.0546 20.3749,9.51728 19.7837,-2.75966 -0.4784,-9.96391 -9.8239,-12.10647 -14.6978,-8.84728 -1.9228,1.19735 -1.8145,0.482 -0.7646,-0.76453 7.2391,-8.54602 2.8561,-19.55101 -6.9182,-19.76328 0,-6e-5 0,5e-5 -0.01,0 z"
         id="path147-0-8-1-6-1-1-0-5-61-2-0"
         style="display:inline;opacity:1" />
      <path
         d="m 2782.428,-827.36918 c 3.9097,-0.0884 5.6631,-4.67386 2.7674,-8.23469 -0.42,-0.5194 -0.4633,-0.81746 0.3059,-0.31856 1.9495,1.358 5.6877,0.46525 5.8791,-3.68637 0.2364,-5.1154 -6.6253,-6.58928 -7.9135,-1.14986 -0.068,0.5739 -0.5158,0.56081 -0.4079,-0.25382 0.1176,-2.211 0.7804,-4.27752 1.6914,-6.29272 -1.5492,0 -3.0985,0 -4.6477,0 0.9111,2.0152 1.5739,4.08172 1.6914,6.29272 0.108,0.81463 -0.3398,0.82772 -0.4079,0.25382 -1.2882,-5.43942 -8.1499,-3.96554 -7.9134,1.14986 0.1914,4.15162 3.9295,5.04437 5.8791,3.68637 0.7692,-0.4989 0.7259,-0.20084 0.3059,0.31856 -2.8957,3.56083 -1.1424,8.14623 2.7672,8.23469 0,2e-5 0,-2e-5 0,0 z"
         id="path147-6-9-8-7-0-5-6-5-2-8"
         style="display:inline;opacity:1" />
      <path
         d="m 2636.9106,-989.43588 c -9.7744,0.21226 -14.1574,11.21726 -6.9184,19.76328 1.0499,1.24653 1.1583,1.96188 -0.7645,0.76453 -4.8738,-3.25919 -14.2192,-1.11663 -14.6978,8.84728 -0.5912,12.27694 16.5629,15.81426 19.7837,2.75966 0.1701,-1.37736 1.2893,-1.34593 1.0196,0.60917 -0.2937,5.30641 -1.9509,10.26605 -4.2287,15.10252 3.8391,0 8.1295,0 11.6201,0 -2.2777,-4.83647 -3.9349,-9.79611 -4.2286,-15.10252 -0.2699,-1.9551 0.8495,-1.98653 1.0195,-0.60917 3.2209,13.0546 20.3749,9.51728 19.7837,-2.75966 -0.4784,-9.96391 -9.8239,-12.10647 -14.6978,-8.84728 -1.9228,1.19735 -1.8145,0.482 -0.7646,-0.76453 7.2391,-8.54602 2.8561,-19.55101 -6.9183,-19.76328 0,-6e-5 0,5e-5 -0.01,0 z"
         id="path147-0-8-1-6-75-2-9-77-4-4-2"
         style="display:inline;opacity:1" />
      <path
         d="m 2636.9106,-875.66057 c -9.7745,-0.21225 -14.1575,-11.21727 -6.9184,-19.76329 1.0499,-1.24653 1.1582,-1.96187 -0.7646,-0.76452 -4.8738,3.25919 -14.2191,1.11662 -14.6978,-8.84728 -0.5911,-12.27695 16.5629,-15.81427 19.7837,-2.75967 0.1701,1.37736 1.2894,1.34593 1.0196,-0.60916 -0.2937,-5.30642 -1.9509,-10.26606 -4.2287,-15.10253 3.8391,0 8.1296,0 11.6202,0 -2.2777,4.83647 -3.9349,9.79611 -4.2286,15.10253 -0.2699,1.95509 0.8495,1.98652 1.0195,0.60916 3.2209,-13.0546 20.3749,-9.51728 19.7837,2.75967 -0.4784,9.9639 -9.8239,12.10647 -14.6978,8.84728 -1.9228,-1.19735 -1.8145,-0.48201 -0.7646,0.76452 7.2391,8.54602 2.8561,19.55103 -6.9183,19.76329 0,6e-5 0,-5e-5 -0.01,0 z"
         id="path147-0-8-1-6-75-2-8-0-6-4-4"
         style="display:inline;opacity:1" />
      <path
         d="m 2739.9814,-989.43588 c -9.7745,0.21226 -14.1575,11.21726 -6.9184,19.76328 1.0499,1.24653 1.1582,1.96188 -0.7646,0.76453 -4.8738,-3.25919 -14.2192,-1.11663 -14.6978,8.84728 -0.591,12.27694 16.5629,15.81426 19.7837,2.75966 0.1701,-1.37736 1.2895,-1.34593 1.0196,0.60917 -0.2937,5.30641 -1.9509,10.26605 -4.2287,15.10252 3.8391,0 8.1296,0 11.6202,0 -2.2777,-4.83647 -3.9349,-9.79611 -4.2286,-15.10252 -0.2699,-1.9551 0.8495,-1.98653 1.0195,-0.60917 3.2209,13.0546 20.3749,9.51728 19.7837,-2.75966 -0.4784,-9.96391 -9.8239,-12.10647 -14.6978,-8.84728 -1.9228,1.19735 -1.8144,0.482 -0.7646,-0.76453 7.2391,-8.54602 2.8561,-19.55101 -6.9182,-19.76328 0,-6e-5 0,5e-5 -0.01,0 z"
         id="path147-0-8-1-6-75-2-9-7-1-36-2-4"
         style="display:inline;opacity:1" />
      <path
         d="m 2739.9814,-875.66057 c -9.7745,-0.21225 -14.1575,-11.21727 -6.9184,-19.76329 1.0499,-1.24653 1.1582,-1.96187 -0.7646,-0.76452 -4.8738,3.25919 -14.2192,1.11662 -14.6978,-8.84728 -0.591,-12.27695 16.5629,-15.81427 19.7837,-2.75967 0.1701,1.37736 1.2895,1.34593 1.0196,-0.60916 -0.2937,-5.30642 -1.9509,-10.26606 -4.2287,-15.10253 3.8391,0 8.1296,0 11.6202,0 -2.2777,4.83647 -3.9349,9.79611 -4.2286,15.10253 -0.2699,1.95509 0.8495,1.98652 1.0195,0.60916 3.2209,-13.0546 20.3749,-9.51728 19.7837,2.75967 -0.4784,9.9639 -9.8239,12.10647 -14.6978,8.84728 -1.9228,-1.19735 -1.8144,-0.48201 -0.7646,0.76452 7.2391,8.54602 2.8561,19.55103 -6.9182,19.76329 0,6e-5 0,-5e-5 -0.01,0 z"
         id="path147-0-8-1-6-75-2-8-5-1-55-5-4"
         style="display:inline;opacity:1" />
      <path
         d="m 2594.4731,-1038.5561 c -3.9098,0.088 -5.663,4.6738 -2.7674,8.2347 0.42,0.5194 0.4632,0.8174 -0.3058,0.3185 -1.9497,-1.358 -5.6877,-0.4652 -5.8792,3.6864 -0.2364,5.1154 6.6252,6.5893 7.9135,1.1499 0.068,-0.5739 0.5158,-0.5608 0.4078,0.2538 -0.1175,2.211 -0.7803,4.2775 -1.6914,6.2927 1.5493,0 3.0986,0 4.6479,0 -0.9111,-2.0152 -1.574,-4.0817 -1.6915,-6.2927 -0.108,-0.8146 0.3397,-0.8277 0.4078,-0.2538 1.2883,5.4394 8.15,3.9655 7.9135,-1.1499 -0.1914,-4.1516 -3.9295,-5.0444 -5.8791,-3.6864 -0.7691,0.4989 -0.7258,0.2009 -0.3059,-0.3185 2.8957,-3.5609 1.1424,-8.1463 -2.7672,-8.2347 0,0 0,0 0,0 z"
         id="path147-6-9-8-7-4-5-62-7-8-4"
         style="display:inline;opacity:1" />
      <path
         d="m 2585.2959,-1048.0227 3.0054,-0.9541 c 1.1353,3.0333 3.4251,3.9313 5.8493,3.7368 4.3493,-0.3472 5.7944,-5.2156 6.1195,-9.5189 -1.6947,1.7999 -4.2405,2.7135 -6.41,2.6209 -6.9348,-0.372 -8.71,-5.9296 -8.774,-11.747 -0.1895,-4.905 1.8354,-8.4578 5.3092,-10.0893 1.8405,-0.8262 6.0541,-0.8262 7.9049,0.1527 4.2494,2.245 5.825,6.1228 5.5396,15.382 0,7.6172 -1.6153,16.4887 -9.7698,16.6819 -4.7089,0.6526 -8.289,-3.0176 -8.7741,-6.265 z m 11.805,-8.3469 c 1.4144,-0.8966 2.2105,-1.7385 2.8454,-2.998 0.5196,-1.0351 0.7,-1.5754 0.5503,-3.716 -0.3853,-5.5223 -3.2753,-8.6575 -7.4697,-8.0362 -2.3398,0.3524 -3.6197,1.6629 -4.3544,4.0997 -1.3555,4.5069 0.3648,9.7787 3.5851,10.9925 1.4489,0.5508 3.6888,0.3929 4.8433,-0.342 z m 0,0"
         id="path29-2-3-4"
         style="opacity:1" />
      <path
         d="m 2791.6022,-817.90261 -3.0053,0.95414 c -1.1353,-3.03327 -3.4252,-3.93128 -5.8494,-3.73681 -4.3493,0.34719 -5.7943,5.21567 -6.1195,9.51896 1.6947,-1.79993 4.2405,-2.7136 6.41,-2.62089 6.9348,0.372 8.7101,5.92957 8.7741,11.7469 0.1894,4.90496 -1.8355,8.45776 -5.3092,10.08933 -1.8406,0.82615 -6.0542,0.82615 -7.905,-0.15271 -4.2495,-2.245 -5.825,-6.12276 -5.5396,-15.38194 0,-7.61726 1.6153,-16.48879 9.7698,-16.68197 4.7089,-0.65261 8.289,3.01761 8.7741,6.26499 z m -11.805,8.34692 c -1.4143,0.89662 -2.2105,1.73852 -2.8453,2.99808 -0.5197,1.03498 -0.7002,1.57534 -0.5504,3.71587 0.3853,5.52238 3.2754,8.65752 7.4698,8.03622 2.3398,-0.35237 3.6196,-1.66287 4.3543,-4.09965 1.3556,-4.50694 -0.3647,-9.77872 -3.5851,-10.99252 -1.4489,-0.55084 -3.6888,-0.39284 -4.8433,0.342 z m 0,0"
         id="path29-6-1-3-7"
         style="opacity:1" />
    </g>
  </g>
  <g
     transform="translate(-322.14571,60.813271)"
     id="g862">
    <rect
       ry="124.68219"
       rx="144.48164"
       y="-1029.6816"
       x="-356.47275"
       height="794.39795"
       width="1659.9126"
       id="rect22845-2"
       style="opacity:1;vector-effect:none;fill:#006614;fill-opacity:1;stroke:none;stroke-width:1.74801;stroke-linecap:butt;stroke-linejoin:miter;stroke-miterlimit:4;stroke-dasharray:none;stroke-dashoffset:0;stroke-opacity:1" />
    <text
       onclick=""
       xml:space="preserve"
       style="font-style:normal;font-variant:normal;font-weight:normal;font-stretch:normal;font-size:42.6667px;line-height:125%;font-family:Carlito;-inkscape-font-specification:'Carlito, Normal';text-align:center;letter-spacing:0px;word-spacing:0px;writing-mode:lr-tb;text-anchor:middle;fill:#ffffff;fill-opacity:1;stroke:none;stroke-width:1.06667px;stroke-linecap:butt;stroke-linejoin:miter;stroke-opacity:1"
       x="472.19449"
       y="-935.81342"
       id="text5630-0"><tspan
         sodipodi:role="line"
         x="472.19449"
         y="-935.81342"
         id="tspan4923"
         style="font-style:normal;font-variant:normal;font-weight:normal;font-stretch:normal;font-size:48px;line-height:125%;font-family:Carlito;-inkscape-font-specification:'Carlito, Normal';text-align:center;writing-mode:lr-tb;text-anchor:middle;fill:#ffffff;fill-opacity:1;stroke-width:1.06667px">Single Playing Card from:</tspan><tspan
         sodipodi:role="line"
         x="472.19449"
         y="-875.81342"
         id="tspan5035"
         style="font-style:normal;font-variant:normal;font-weight:normal;font-stretch:normal;font-size:48px;line-height:125%;font-family:Carlito;-inkscape-font-specification:'Carlito, Normal';text-align:center;writing-mode:lr-tb;text-anchor:middle;fill:#ffffff;fill-opacity:1;stroke-width:1.06667px">Standard Edition - Color Set - Bordered </tspan><tspan
         id="tspan12311"
         sodipodi:role="line"
         x="472.19449"
         y="-820.48004" /><tspan
         sodipodi:role="line"
         x="472.19449"
         y="-762.48004"
         id="tspan4927"
         style="font-style:normal;font-variant:normal;font-weight:normal;font-stretch:normal;font-size:48px;line-height:125%;font-family:Carlito;-inkscape-font-specification:'Carlito, Normal';text-align:center;writing-mode:lr-tb;text-anchor:middle;fill:#ffaaaa;fill-opacity:1;stroke-width:1.06667px">Copyright 2011, 2020 - Chris Aguilar - conjurenation@gmail.com</tspan><tspan
         sodipodi:role="line"
         x="472.19449"
         y="-707.14667"
         id="tspan12344" /><tspan
         sodipodi:role="line"
         x="472.19449"
         y="-649.14667"
         id="tspan4931"
         style="font-style:normal;font-variant:normal;font-weight:normal;font-stretch:normal;font-size:48px;line-height:125%;font-family:Carlito;-inkscape-font-specification:'Carlito, Normal';text-align:center;writing-mode:lr-tb;text-anchor:middle;fill:#ffffff;fill-opacity:1;stroke-width:1.06667px">https://totalnonsense.com/open-source-vector-playing-cards/</tspan><tspan
         sodipodi:role="line"
         x="472.19449"
         y="-593.81329"
         id="tspan4929" /><tspan
         sodipodi:role="line"
         x="472.19449"
         y="-535.81329"
         id="tspan4919"
         style="font-style:normal;font-variant:normal;font-weight:normal;font-stretch:normal;font-size:48px;line-height:125%;font-family:Carlito;-inkscape-font-specification:'Carlito, Normal';text-align:center;writing-mode:lr-tb;text-anchor:middle;fill:#ffaaaa;fill-opacity:1;stroke-width:1.06667px">Licensed under:</tspan><tspan
         sodipodi:role="line"
         x="472.19449"
         y="-475.81329"
         style="font-style:normal;font-variant:normal;font-weight:normal;font-stretch:normal;font-size:48px;line-height:125%;font-family:Carlito;-inkscape-font-specification:'Carlito, Normal';text-align:center;writing-mode:lr-tb;text-anchor:middle;fill:#ffaaaa;fill-opacity:1;stroke-width:1.06667px"
         id="tspan1594-5">LGPL 3.0</tspan><tspan
         id="tspan12253-3"
         sodipodi:role="line"
         x="472.19449"
         y="-415.81329"
         style="font-style:normal;font-variant:normal;font-weight:normal;font-stretch:normal;font-size:48px;line-height:125%;font-family:Carlito;-inkscape-font-specification:'Carlito, Normal';text-align:center;writing-mode:lr-tb;text-anchor:middle;fill:#ffaaaa;fill-opacity:1;stroke-width:1.06667px">https://www.gnu.org/licenses/lgpl-3.0.html</tspan><tspan
         sodipodi:role="line"
         x="472.19449"
         y="-360.47995"
         id="tspan5031" /><tspan
         sodipodi:role="line"
         x="472.19449"
         y="-302.47992"
         id="tspan5033"
         style="font-style:normal;font-variant:normal;font-weight:normal;font-stretch:normal;font-size:48px;line-height:125%;font-family:Carlito;-inkscape-font-specification:'Carlito, Normal';text-align:center;writing-mode:lr-tb;text-anchor:middle;fill:#ffffff;fill-opacity:1;stroke-width:1.06667px">Each Card Measures (63mm x 88mm)</tspan><tspan
         sodipodi:role="line"
         x="472.19449"
         y="-247.14656"
         id="tspan5634-6" /></text>
  </g>
</svg>
