<?xml version="1.0" encoding="UTF-8" standalone="no"?>
<svg
   xmlns:dc="http://purl.org/dc/elements/1.1/"
   xmlns:cc="http://creativecommons.org/ns#"
   xmlns:rdf="http://www.w3.org/1999/02/22-rdf-syntax-ns#"
   xmlns:svg="http://www.w3.org/2000/svg"
   xmlns="http://www.w3.org/2000/svg"
   xmlns:sodipodi="http://sodipodi.sourceforge.net/DTD/sodipodi-0.dtd"
   xmlns:inkscape="http://www.inkscape.org/namespaces/inkscape"
   inkscape:version="1.1-dev (60faa23, 2020-06-06)"
   sodipodi:docname="CLUB-10.svg"
   width="63.00013mm"
   height="88.000046mm"
   viewBox="0 0 238.11073 332.5986"
   version="1.1"
   id="svg8">
  <sodipodi:namedview
     inkscape:current-layer="svg8"
     inkscape:window-maximized="0"
     inkscape:window-y="0"
     inkscape:window-x="0"
     inkscape:cy="-34.258687"
     inkscape:cx="-107.0314"
     inkscape:zoom="0.14149939"
     showgrid="false"
     id="namedview25"
     inkscape:window-height="485"
     inkscape:window-width="774"
     inkscape:pageshadow="2"
     inkscape:pageopacity="0"
     guidetolerance="10"
     gridtolerance="10"
     objecttolerance="10"
     borderopacity="1"
     bordercolor="#666666"
     pagecolor="#ffffff" />
  <title
     id="title8745">Vector Playing Cards</title>
  <defs
     id="defs2" />
  <metadata
     id="metadata5">
    <rdf:RDF>
      <cc:Work
         rdf:about="">
        <dc:format>image/svg+xml</dc:format>
        <dc:type
           rdf:resource="http://purl.org/dc/dcmitype/StillImage" />
        <dc:title>Vector Playing Cards</dc:title>
        <dc:creator>
          <cc:Agent>
            <dc:title>Chris Aguilar</dc:title>
          </cc:Agent>
        </dc:creator>
        <dc:rights>
          <cc:Agent>
            <dc:title>Copyright 2011, 017</dc:title>
          </cc:Agent>
        </dc:rights>
        <dc:publisher>
          <cc:Agent>
            <dc:title>Chris Aguilar</dc:title>
          </cc:Agent>
        </dc:publisher>
        <dc:description>Vector Playing Cards</dc:description>
        <dc:contributor>
          <cc:Agent>
            <dc:title>Chris Aguilar</dc:title>
          </cc:Agent>
        </dc:contributor>
        <cc:license
           rdf:resource="https://opensource.org/licenses/lgpl-3.0.html" />
      </cc:Work>
    </rdf:RDF>
  </metadata>
  <g
     id="layer1"
     transform="translate(-1176.3885,-2.8466744)">
    <g
       transform="matrix(1.07145,0,0,1.07009,-1868.2,1167.5)"
       id="CLUB-10">
      <rect
         ry="10.629899"
         rx="10.62995"
         style="display:inline;opacity:1;fill:#ffffff;fill-opacity:1;stroke:none;stroke-width:0.996734;stroke-miterlimit:4;stroke-dasharray:none;stroke-opacity:1"
         id="rect6355-6-85-3-6-8-7"
         width="222.23224"
         height="310.81366"
         x="2841.5591"
         y="-1088.3695" />
      <path
         style="display:inline;opacity:1"
         id="path147-0-8-1-6-13-2-22-1-5"
         d="m 3004.2066,-1055.3648 c -9.7745,0.2123 -14.1574,11.2173 -6.9184,19.7633 1.0499,1.2466 1.1582,1.9619 -0.7646,0.7646 -4.8738,-3.2592 -14.2192,-1.1167 -14.6978,8.8472 -0.5911,12.277 16.5629,15.8143 19.7837,2.7597 0.1701,-1.3774 1.2895,-1.3459 1.0196,0.6092 -0.2937,5.3064 -1.9509,10.266 -4.2287,15.1025 3.8391,0 8.1296,0 11.6202,0 -2.2777,-4.8365 -3.9349,-9.7961 -4.2286,-15.1025 -0.2699,-1.9551 0.8495,-1.9866 1.0195,-0.6092 3.2209,13.0546 20.3749,9.5173 19.7837,-2.7597 -0.4784,-9.9639 -9.8239,-12.1064 -14.6978,-8.8472 -1.9228,1.1973 -1.8144,0.482 -0.7645,-0.7646 7.239,-8.546 2.8561,-19.551 -6.9183,-19.7633 0,0 0,10e-5 -0.01,0 z" />
      <path
         style="display:inline;opacity:1"
         id="path147-0-8-1-6-75-2-83-21-1-8"
         d="m 2901.1358,-1055.3648 c -9.7745,0.2123 -14.1575,11.2173 -6.9184,19.7633 1.0499,1.2466 1.1582,1.9619 -0.7646,0.7646 -4.8738,-3.2592 -14.2192,-1.1167 -14.6978,8.8472 -0.5911,12.277 16.5629,15.8143 19.7837,2.7597 0.1701,-1.3774 1.2894,-1.3459 1.0196,0.6092 -0.2937,5.3064 -1.9509,10.266 -4.2287,15.1025 3.8391,0 8.1296,0 11.6202,0 -2.2777,-4.8365 -3.9349,-9.7961 -4.2286,-15.1025 -0.2699,-1.9551 0.8495,-1.9866 1.0195,-0.6092 3.2209,13.0546 20.3749,9.5173 19.7837,-2.7597 -0.4784,-9.9639 -9.8239,-12.1064 -14.6978,-8.8472 -1.9228,1.1973 -1.8145,0.482 -0.7646,-0.7646 7.2391,-8.546 2.8561,-19.551 -6.9182,-19.7633 0,0 0,10e-5 -0.01,0 z" />
      <path
         style="display:inline;opacity:1"
         id="path147-0-8-1-6-7-5-5-7-3-5-5"
         d="m 3004.2066,-809.7317 c -9.7745,-0.21226 -14.1574,-11.21727 -6.9184,-19.76328 1.0499,-1.24653 1.1582,-1.96188 -0.7646,-0.76453 -4.8738,3.25919 -14.2192,1.11663 -14.6978,-8.84728 -0.5911,-12.27695 16.5629,-15.81426 19.7837,-2.75967 0.1701,1.37736 1.2895,1.34594 1.0196,-0.60916 -0.2937,-5.30641 -1.9509,-10.26606 -4.2287,-15.10253 3.8391,0 8.1296,0 11.6202,0 -2.2777,4.83647 -3.9349,9.79612 -4.2286,15.10253 -0.2699,1.9551 0.8495,1.98652 1.0195,0.60916 3.2209,-13.05459 20.3749,-9.51728 19.7837,2.75967 -0.4784,9.96391 -9.8239,12.10647 -14.6978,8.84728 -1.9228,-1.19735 -1.8144,-0.482 -0.7645,0.76453 7.239,8.54601 2.8561,19.55101 -6.9183,19.76328 0,6e-5 0,-5e-5 -0.01,0 z" />
      <path
         style="display:inline;opacity:1"
         id="path147-0-8-1-6-75-6-1-2-7-9-3"
         d="m 2901.1358,-809.7317 c -9.7745,-0.21226 -14.1575,-11.21727 -6.9184,-19.76328 1.0499,-1.24653 1.1582,-1.96188 -0.7646,-0.76453 -4.8738,3.25919 -14.2192,1.11663 -14.6978,-8.84728 -0.5911,-12.27695 16.5629,-15.81426 19.7837,-2.75967 0.1701,1.37736 1.2894,1.34594 1.0196,-0.60916 -0.2937,-5.30641 -1.9509,-10.26606 -4.2287,-15.10253 3.8391,0 8.1296,0 11.6202,0 -2.2777,4.83647 -3.9349,9.79612 -4.2286,15.10253 -0.2699,1.9551 0.8495,1.98652 1.0195,0.60916 3.2209,-13.05459 20.3749,-9.51728 19.7837,2.75967 -0.4784,9.96391 -9.8239,12.10647 -14.6978,8.84728 -1.9228,-1.19735 -1.8145,-0.482 -0.7646,0.76453 7.2391,8.54601 2.8561,19.55101 -6.9182,19.76328 0,6e-5 0,-5e-5 -0.01,0 z" />
      <path
         style="display:inline;opacity:1"
         id="path147-0-8-1-6-2-00-7-1-1-4"
         d="m 2952.6711,-1022.4001 c -9.7745,0.2123 -14.1573,11.2173 -6.9184,19.7633 1.0499,1.2465 1.1582,1.9619 -0.7645,0.7645 -4.8739,-3.2592 -14.2193,-1.1166 -14.6979,8.84731 -0.5911,12.27694 16.5629,15.81426 19.7838,2.75966 0.17,-1.37736 1.2894,-1.34593 1.0195,0.60917 -0.2937,5.30641 -1.9509,10.26605 -4.2286,15.10252 3.839,0 8.1295,0 11.6202,0 -2.2777,-4.83647 -3.935,-9.79611 -4.2287,-15.10252 -0.2699,-1.9551 0.8495,-1.98653 1.0195,-0.60917 3.2209,13.0546 20.3749,9.51728 19.7838,-2.75966 -0.4785,-9.96391 -9.824,-12.10651 -14.6978,-8.84731 -1.9228,1.1974 -1.8145,0.482 -0.7646,-0.7645 7.239,-8.546 2.8561,-19.551 -6.9183,-19.7633 0,0 0,10e-5 -0.01,0 z" />
      <path
         style="display:inline;opacity:1"
         id="path147-0-8-1-6-2-0-8-6-8-1-8"
         d="m 2952.6712,-842.69613 c -9.7745,-0.21226 -14.1575,-11.21726 -6.9184,-19.76327 1.0499,-1.24653 1.1582,-1.96188 -0.7646,-0.76453 -4.8738,3.25919 -14.2192,1.11663 -14.6978,-8.84728 -0.5911,-12.27695 16.5629,-15.81427 19.7837,-2.75967 0.1701,1.37736 1.2895,1.34594 1.0196,-0.60916 -0.2937,-5.30642 -1.9509,-10.26607 -4.2287,-15.10254 3.8391,0 8.1296,0 11.6202,0 -2.2777,4.83647 -3.9349,9.79612 -4.2286,15.10254 -0.2699,1.9551 0.8495,1.98652 1.0195,0.60916 3.2209,-13.0546 20.3749,-9.51728 19.7837,2.75967 -0.4784,9.96391 -9.8239,12.10647 -14.6978,8.84728 -1.9228,-1.19735 -1.8144,-0.482 -0.7646,0.76453 7.2391,8.54601 2.8562,19.551 -6.9182,19.76327 0,6e-5 0,-5e-5 -0.01,0 z" />
      <path
         style="display:inline;opacity:1"
         id="path147-6-9-8-7-0-5-6-83-3-7"
         d="m 3046.6532,-827.36919 c 3.9097,-0.0884 5.663,-4.67386 2.7673,-8.23469 -0.42,-0.51939 -0.4633,-0.81746 0.3059,-0.31856 1.9495,1.358 5.6877,0.46526 5.8791,-3.68637 0.2365,-5.1154 -6.6252,-6.58928 -7.9135,-1.14986 -0.068,0.57391 -0.5158,0.56081 -0.4078,-0.25382 0.1175,-2.211 0.7803,-4.27752 1.6914,-6.29271 -1.5492,0 -3.0986,0 -4.6478,0 0.9111,2.01519 1.5739,4.08171 1.6914,6.29271 0.108,0.81463 -0.3398,0.82773 -0.4078,0.25382 -1.2883,-5.43942 -8.1499,-3.96554 -7.9135,1.14986 0.1914,4.15163 3.9296,5.04437 5.8791,3.68637 0.7692,-0.4989 0.7259,-0.20083 0.3059,0.31856 -2.8957,3.56083 -1.1424,8.14624 2.7673,8.23469 10e-4,2e-5 0,-2e-5 0,0 z" />
      <path
         style="display:inline;opacity:1"
         id="path147-0-8-1-6-75-2-9-77-44-0-7"
         d="m 2901.1358,-989.43589 c -9.7745,0.21226 -14.1574,11.21727 -6.9184,19.76328 1.0499,1.24653 1.1582,1.96188 -0.7646,0.76453 -4.8738,-3.25919 -14.2192,-1.11663 -14.6978,8.84728 -0.5911,12.27695 16.5629,15.81426 19.7837,2.75967 0.1701,-1.37736 1.2894,-1.34594 1.0196,0.60916 -0.2937,5.30641 -1.9509,10.26606 -4.2287,15.10253 3.8391,0 8.1296,0 11.6202,0 -2.2777,-4.83647 -3.9349,-9.79612 -4.2286,-15.10253 -0.2699,-1.9551 0.8495,-1.98652 1.0195,-0.60916 3.2209,13.05459 20.3749,9.51728 19.7837,-2.75967 -0.4784,-9.96391 -9.8239,-12.10647 -14.6978,-8.84728 -1.9228,1.19735 -1.8145,0.482 -0.7646,-0.76453 7.2391,-8.54601 2.8561,-19.55101 -6.9182,-19.76328 0,-6e-5 0,5e-5 -0.01,0 z" />
      <path
         style="display:inline;opacity:1"
         id="path147-0-8-1-6-75-2-8-0-3-9-3"
         d="m 2901.1358,-875.66057 c -9.7745,-0.21226 -14.1575,-11.21728 -6.9184,-19.76329 1.0499,-1.24653 1.1582,-1.96188 -0.7646,-0.76453 -4.8738,3.25919 -14.2192,1.11663 -14.6978,-8.84728 -0.5911,-12.27694 16.5629,-15.81426 19.7837,-2.75966 0.1701,1.37736 1.2894,1.34593 1.0196,-0.60917 -0.2937,-5.30641 -1.9509,-10.26606 -4.2287,-15.10253 3.8391,0 8.1296,0 11.6202,0 -2.2777,4.83647 -3.9349,9.79612 -4.2286,15.10253 -0.2699,1.9551 0.8495,1.98653 1.0195,0.60917 3.2209,-13.0546 20.3749,-9.51728 19.7837,2.75966 -0.4784,9.96391 -9.8239,12.10647 -14.6978,8.84728 -1.9228,-1.19735 -1.8145,-0.482 -0.7646,0.76453 7.2391,8.54601 2.8561,19.55102 -6.9182,19.76329 0,6e-5 0,-5e-5 -0.01,0 z" />
      <path
         style="display:inline;opacity:1"
         id="path147-0-8-1-6-75-2-9-7-1-9-7-9"
         d="m 3004.2066,-989.43589 c -9.7745,0.21226 -14.1574,11.21727 -6.9184,19.76328 1.0499,1.24653 1.1582,1.96188 -0.7646,0.76453 -4.8738,-3.25919 -14.2192,-1.11663 -14.6978,8.84728 -0.5911,12.27695 16.5629,15.81426 19.7837,2.75967 0.1701,-1.37736 1.2895,-1.34594 1.0196,0.60916 -0.2937,5.30641 -1.9509,10.26606 -4.2287,15.10253 3.8391,0 8.1296,0 11.6202,0 -2.2777,-4.83647 -3.9349,-9.79612 -4.2286,-15.10253 -0.2699,-1.9551 0.8495,-1.98652 1.0195,-0.60916 3.2209,13.05459 20.3749,9.51728 19.7837,-2.75967 -0.4784,-9.96391 -9.8239,-12.10647 -14.6978,-8.84728 -1.9228,1.19735 -1.8144,0.482 -0.7645,-0.76453 7.239,-8.54601 2.8561,-19.55101 -6.9183,-19.76328 0,-6e-5 0,5e-5 -0.01,0 z" />
      <path
         style="display:inline;opacity:1"
         id="path147-0-8-1-6-75-2-8-5-1-52-2-8"
         d="m 3004.2066,-875.66057 c -9.7745,-0.21226 -14.1574,-11.21728 -6.9184,-19.76329 1.0499,-1.24653 1.1582,-1.96188 -0.7646,-0.76453 -4.8738,3.25919 -14.2192,1.11663 -14.6978,-8.84728 -0.5911,-12.27694 16.5629,-15.81426 19.7837,-2.75966 0.1701,1.37736 1.2895,1.34593 1.0196,-0.60917 -0.2937,-5.30641 -1.9509,-10.26606 -4.2287,-15.10253 3.8391,0 8.1296,0 11.6202,0 -2.2777,4.83647 -3.9349,9.79612 -4.2286,15.10253 -0.2699,1.9551 0.8495,1.98653 1.0195,0.60917 3.2209,-13.0546 20.3749,-9.51728 19.7837,2.75966 -0.4784,9.96391 -9.8239,12.10647 -14.6978,8.84728 -1.9228,-1.19735 -1.8144,-0.482 -0.7645,0.76453 7.239,8.54601 2.8561,19.55102 -6.9183,19.76329 0,6e-5 0,-5e-5 -0.01,0 z" />
      <path
         style="display:inline;opacity:1"
         id="path147-6-9-8-7-4-5-62-52-8-0"
         d="m 2858.6982,-1038.5561 c -3.9098,0.088 -5.663,4.6738 -2.7674,8.2347 0.42,0.5194 0.4633,0.8174 -0.3058,0.3185 -1.9496,-1.358 -5.6877,-0.4652 -5.8791,3.6864 -0.2365,5.1154 6.6251,6.5893 7.9135,1.1499 0.068,-0.5739 0.5158,-0.5608 0.4077,0.2538 -0.1174,2.211 -0.7803,4.2775 -1.6914,6.2927 1.5493,0 3.0986,0 4.6479,0 -0.9111,-2.0152 -1.574,-4.0817 -1.6914,-6.2927 -0.108,-0.8146 0.3397,-0.8277 0.4077,-0.2538 1.2884,5.4394 8.15,3.9655 7.9136,-1.1499 -0.1915,-4.1516 -3.9296,-5.0444 -5.8792,-3.6864 -0.7691,0.4989 -0.7258,0.2009 -0.3058,-0.3185 2.8956,-3.5609 1.1424,-8.1463 -2.7673,-8.2347 -10e-4,0 0,0 0,0 z" />
      <path
         d="m 2848.7242,-1041.6816 v -32.8938 h 3.1846 v 32.8938 z m 0,0"
         id="path31-6-7-6"
         style="opacity:1" />
      <path
         d="m 2861.3484,-1074.576 c -3.0656,0 -5.5295,2.8036 -5.5295,6.2859 v 20.3233 c 0,3.4823 2.4652,6.2846 5.5295,6.2846 h 1.7893 c 3.0655,0 5.5345,-2.8023 5.5345,-6.2846 v -20.3233 c 0,-3.4823 -2.4703,-6.2859 -5.5345,-6.2859 z m 0.9253,3.1103 c 1.8099,0 3.2652,1.39 3.2652,3.1286 v 20.5922 c 0,1.7385 -1.4553,3.1416 -3.2652,3.1416 -1.8098,0 -3.2702,-1.4031 -3.2702,-3.1416 v -20.5922 c 0,-1.7373 1.4604,-3.1286 3.2702,-3.1286 z m 0,0"
         id="path33-9-3-6"
         style="opacity:1" />
      <path
         d="m 3056.6243,-824.24369 v 32.8938 h -3.1845 v -32.8938 z m 0,0"
         id="path31-1-4-0-7"
         style="opacity:1" />
      <path
         d="m 3044.0002,-791.34925 c 3.0655,0 5.5294,-2.80358 5.5294,-6.28587 v -20.32334 c 0,-3.4823 -2.4652,-6.28458 -5.5294,-6.28458 h -1.7894 c -3.0655,0 -5.5345,2.80228 -5.5345,6.28458 v 20.32334 c 0,3.48229 2.4703,6.28587 5.5345,6.28587 z m -0.9254,-3.1103 c -1.8099,0 -3.2652,-1.39004 -3.2652,-3.12859 v -20.59222 c 0,-1.73854 1.4553,-3.14163 3.2652,-3.14163 1.8098,0 3.2703,1.40309 3.2703,3.14163 v 20.59222 c 0,1.73724 -1.4605,3.12859 -3.2703,3.12859 z m 0,0"
         id="path33-5-7-4-0"
         style="opacity:1" />
    </g>
  </g>
  <g
     sodipodi:insensitive="true"
     transform="translate(-377.57454,138.09296)"
     id="g862">
    <rect
       ry="124.68219"
       rx="144.48164"
       y="-1029.6816"
       x="-356.47275"
       height="794.39795"
       width="1659.9126"
       id="rect22845-2"
       style="opacity:1;vector-effect:none;fill:#006614;fill-opacity:1;stroke:none;stroke-width:1.74801;stroke-linecap:butt;stroke-linejoin:miter;stroke-miterlimit:4;stroke-dasharray:none;stroke-dashoffset:0;stroke-opacity:1" />
    <text
       onclick=""
       xml:space="preserve"
       style="font-style:normal;font-variant:normal;font-weight:normal;font-stretch:normal;font-size:42.6667px;line-height:125%;font-family:Carlito;-inkscape-font-specification:'Carlito, Normal';text-align:center;letter-spacing:0px;word-spacing:0px;writing-mode:lr-tb;text-anchor:middle;fill:#ffffff;fill-opacity:1;stroke:none;stroke-width:1.06667px;stroke-linecap:butt;stroke-linejoin:miter;stroke-opacity:1"
       x="472.19449"
       y="-935.81342"
       id="text5630-0"><tspan
         sodipodi:role="line"
         x="472.19449"
         y="-935.81342"
         id="tspan4923"
         style="font-style:normal;font-variant:normal;font-weight:normal;font-stretch:normal;font-size:48px;line-height:125%;font-family:Carlito;-inkscape-font-specification:'Carlito, Normal';text-align:center;writing-mode:lr-tb;text-anchor:middle;fill:#ffffff;fill-opacity:1;stroke-width:1.06667px">Single Playing Card from:</tspan><tspan
         sodipodi:role="line"
         x="472.19449"
         y="-875.81342"
         id="tspan5035"
         style="font-style:normal;font-variant:normal;font-weight:normal;font-stretch:normal;font-size:48px;line-height:125%;font-family:Carlito;-inkscape-font-specification:'Carlito, Normal';text-align:center;writing-mode:lr-tb;text-anchor:middle;fill:#ffffff;fill-opacity:1;stroke-width:1.06667px">Standard Edition - Color Set - Bordered </tspan><tspan
         id="tspan12311"
         sodipodi:role="line"
         x="472.19449"
         y="-820.48004" /><tspan
         sodipodi:role="line"
         x="472.19449"
         y="-762.48004"
         id="tspan4927"
         style="font-style:normal;font-variant:normal;font-weight:normal;font-stretch:normal;font-size:48px;line-height:125%;font-family:Carlito;-inkscape-font-specification:'Carlito, Normal';text-align:center;writing-mode:lr-tb;text-anchor:middle;fill:#ffaaaa;fill-opacity:1;stroke-width:1.06667px">Copyright 2011, 2020 - Chris Aguilar - conjurenation@gmail.com</tspan><tspan
         sodipodi:role="line"
         x="472.19449"
         y="-707.14667"
         id="tspan12344" /><tspan
         sodipodi:role="line"
         x="472.19449"
         y="-649.14667"
         id="tspan4931"
         style="font-style:normal;font-variant:normal;font-weight:normal;font-stretch:normal;font-size:48px;line-height:125%;font-family:Carlito;-inkscape-font-specification:'Carlito, Normal';text-align:center;writing-mode:lr-tb;text-anchor:middle;fill:#ffffff;fill-opacity:1;stroke-width:1.06667px">https://totalnonsense.com/open-source-vector-playing-cards/</tspan><tspan
         sodipodi:role="line"
         x="472.19449"
         y="-593.81329"
         id="tspan4929" /><tspan
         sodipodi:role="line"
         x="472.19449"
         y="-535.81329"
         id="tspan4919"
         style="font-style:normal;font-variant:normal;font-weight:normal;font-stretch:normal;font-size:48px;line-height:125%;font-family:Carlito;-inkscape-font-specification:'Carlito, Normal';text-align:center;writing-mode:lr-tb;text-anchor:middle;fill:#ffaaaa;fill-opacity:1;stroke-width:1.06667px">Licensed under:</tspan><tspan
         sodipodi:role="line"
         x="472.19449"
         y="-475.81329"
         style="font-style:normal;font-variant:normal;font-weight:normal;font-stretch:normal;font-size:48px;line-height:125%;font-family:Carlito;-inkscape-font-specification:'Carlito, Normal';text-align:center;writing-mode:lr-tb;text-anchor:middle;fill:#ffaaaa;fill-opacity:1;stroke-width:1.06667px"
         id="tspan1594-5">LGPL 3.0</tspan><tspan
         id="tspan12253-3"
         sodipodi:role="line"
         x="472.19449"
         y="-415.81329"
         style="font-style:normal;font-variant:normal;font-weight:normal;font-stretch:normal;font-size:48px;line-height:125%;font-family:Carlito;-inkscape-font-specification:'Carlito, Normal';text-align:center;writing-mode:lr-tb;text-anchor:middle;fill:#ffaaaa;fill-opacity:1;stroke-width:1.06667px">https://www.gnu.org/licenses/lgpl-3.0.html</tspan><tspan
         sodipodi:role="line"
         x="472.19449"
         y="-360.47995"
         id="tspan5031" /><tspan
         sodipodi:role="line"
         x="472.19449"
         y="-302.47992"
         id="tspan5033"
         style="font-style:normal;font-variant:normal;font-weight:normal;font-stretch:normal;font-size:48px;line-height:125%;font-family:Carlito;-inkscape-font-specification:'Carlito, Normal';text-align:center;writing-mode:lr-tb;text-anchor:middle;fill:#ffffff;fill-opacity:1;stroke-width:1.06667px">Each Card Measures (63mm x 88mm)</tspan><tspan
         sodipodi:role="line"
         x="472.19449"
         y="-247.14656"
         id="tspan5634-6" /></text>
  </g>
</svg>
